<svg width="888" height="446" viewBox="0 0 888 446" fill="none" xmlns="http://www.w3.org/2000/svg">
<path d="M728.634 183.293C724.918 155.244 715.326 128.02 700.425 103.234C685.525 78.4489 665.619 56.6061 641.888 39" stroke="#8CB1CC" stroke-width="5.26255" stroke-linecap="round" stroke-dasharray="1.05 12.63"/>
<path d="M724.928 33C722.711 61.2076 726.414 89.8335 735.817 117.182C745.22 144.53 760.131 170.044 779.668 192.213" stroke="#8CB1CC" stroke-width="5.26255" stroke-linecap="round" stroke-dasharray="1.05 12.63"/>
<line x1="63.6919" y1="187.532" x2="820.826" y2="257.682" stroke="#8CB1CC" stroke-width="15" stroke-dasharray="6 70"/>
<path d="M822.713 415.909L822.383 415.975L824.267 425.357L824.269 425.365L824.271 425.373C824.363 425.767 824.434 426.121 824.482 426.379L809.023 431.669L804.077 422.245L803.872 422.352L803.798 421.909C801.457 421.771 799.143 421.335 796.904 420.596L796.675 421.001L796.432 420.72L789.277 426.934L789.277 426.934L789.27 426.94C788.961 427.219 788.685 427.459 788.485 427.631L776.005 416.87L781.665 407.939L781.413 407.779L781.77 407.499C780.686 405.373 779.94 403.173 779.459 400.876L779.01 400.867L779.086 400.648L769.037 397.143L771.993 381.084L773.037 381.136L773.038 381.136L782.544 381.623L782.562 381.278L782.988 381.459C783.604 380.476 784.293 379.516 785.059 378.628C785.825 377.74 786.628 376.969 787.493 376.183L787.248 375.797L787.579 375.73L785.489 365.323L801.009 360.007L805.91 369.481L806.284 369.288L806.286 369.763C808.579 369.904 810.867 370.318 813.103 371.055L813.332 370.651L813.576 370.932L821.527 364.025L834.058 374.83L828.469 383.731L828.783 383.929L828.418 384.214C829.477 386.318 830.222 388.519 830.699 390.767L831.169 390.699L831.032 391.098L841.074 394.554L838.074 410.665L827.471 410.129L827.454 410.465L827.036 410.28C826.386 411.251 825.741 412.159 824.976 413.047C824.213 413.931 823.342 414.729 822.468 415.522L822.713 415.909ZM795.123 387.306C790.473 392.699 791.134 400.902 796.578 405.597C802.023 410.292 810.234 409.738 814.884 404.345C819.534 398.953 818.874 390.749 813.429 386.055C807.985 381.36 799.773 381.914 795.123 387.306Z" stroke="#0F4166" stroke-opacity="0.2" stroke-width="1.03139"/>
<path d="M135.456 130.148L135.194 130.36L141.212 137.8L141.217 137.807L141.222 137.813C141.486 138.119 141.714 138.4 141.876 138.606L130.628 150.457L121.878 144.398L121.746 144.588L121.475 144.23C119.337 145.192 117.084 145.878 114.758 146.261L114.742 146.725L114.396 146.59L110.936 155.412L110.935 155.412L110.932 155.42C110.787 155.81 110.654 156.15 110.556 156.396L94.5114 152.643L95.3883 142.106L95.0907 142.081L95.2774 141.667C93.3311 140.286 91.6511 138.682 90.1605 136.869L89.7583 137.07L89.7245 136.84L79.195 138.39L74.3732 122.79L75.3223 122.352L75.3229 122.352L83.973 118.379L83.8286 118.064L84.2906 118.027C84.3806 116.871 84.5467 115.701 84.8138 114.559C85.0809 113.417 85.4353 112.361 85.8378 111.265L85.4417 111.035L85.7037 110.824L79.0294 102.569L90.3198 90.6672L99.0524 96.792L99.2946 96.4467L99.516 96.8669C101.614 95.9292 103.833 95.236 106.157 94.8533L106.172 94.3889L106.518 94.5246L110.363 84.7198L126.474 88.4882L125.646 98.9662L126.017 98.9954L125.825 99.4175C127.738 100.791 129.419 102.397 130.883 104.168L131.268 103.889L131.331 104.306L141.831 102.716L146.638 118.383L136.994 122.821L137.135 123.127L136.679 123.157C136.553 124.318 136.402 125.422 136.135 126.563C135.869 127.7 135.467 128.811 135.06 129.918L135.456 130.148ZM97.7538 117.586C96.132 124.519 100.519 131.483 107.519 133.12C114.518 134.757 121.539 130.462 123.16 123.529C124.782 116.595 120.396 109.631 113.396 107.994C106.396 106.357 99.3756 110.652 97.7538 117.586Z" stroke="#0F4166" stroke-opacity="0.2" stroke-width="1.03139"/>
<path d="M778.613 353.594L778.283 353.66L780.168 363.042L780.169 363.05L780.171 363.058C780.263 363.452 780.334 363.806 780.383 364.064L764.923 369.354L759.978 359.93L759.772 360.037L759.698 359.594C757.357 359.456 755.043 359.02 752.804 358.281L752.576 358.686L752.332 358.405L745.177 364.619L745.177 364.619L745.17 364.625C744.861 364.904 744.586 365.144 744.385 365.316L731.906 354.555L737.566 345.624L737.313 345.464L737.671 345.184C736.586 343.058 735.841 340.858 735.36 338.561L734.91 338.552L734.986 338.333L724.937 334.828L727.893 318.769L728.937 318.821L728.938 318.821L738.444 319.308L738.462 318.963L738.889 319.144C739.504 318.161 740.194 317.201 740.96 316.313C741.725 315.425 742.529 314.654 743.393 313.868L743.149 313.482L743.479 313.415L741.389 303.008L756.91 297.692L761.81 307.167L762.185 306.973L762.186 307.448C764.48 307.589 766.767 308.003 769.004 308.74L769.233 308.336L769.476 308.617L777.427 301.71L789.958 312.515L784.369 321.416L784.684 321.614L784.318 321.899C785.377 324.003 786.123 326.204 786.6 328.452L787.07 328.384L786.932 328.783L796.974 332.239L793.974 348.35L783.372 347.814L783.355 348.15L782.936 347.965C782.286 348.936 781.642 349.844 780.876 350.732C780.114 351.616 779.242 352.414 778.369 353.207L778.613 353.594ZM751.024 324.991C746.374 330.384 747.034 338.588 752.479 343.282C757.923 347.977 766.134 347.423 770.784 342.031C775.434 336.638 774.774 328.434 769.33 323.74C763.885 319.045 755.674 319.599 751.024 324.991Z" stroke="#0F4166" stroke-opacity="0.2" stroke-width="1.03139"/>
<path d="M67.5018 95.3615L67.2398 95.5734L73.2574 103.014L73.2625 103.021L73.2678 103.027C73.5319 103.333 73.7589 103.614 73.9214 103.82L62.673 115.671L53.9235 109.611L53.7914 109.802L53.5201 109.444C51.3822 110.406 49.1292 111.092 46.803 111.475L46.7876 111.939L46.4416 111.803L42.9809 120.625L42.9808 120.625L42.9776 120.634C42.8329 121.024 42.6997 121.364 42.6017 121.61L26.5568 117.857L27.4337 107.32L27.1361 107.295L27.3228 106.881C25.3765 105.5 23.6966 103.895 22.2059 102.083L21.8037 102.284L21.77 102.054L11.2405 103.604L6.41858 88.0036L7.36772 87.5661L7.36835 87.5658L16.0184 83.5926L15.874 83.2783L16.336 83.2411C16.426 82.0848 16.5921 80.915 16.8592 79.7728C17.1263 78.631 17.4807 77.5753 17.8832 76.4787L17.4872 76.2493L17.7491 76.0375L11.0748 67.783L22.3652 55.8811L31.0978 62.0058L31.34 61.6606L31.5615 62.0808C33.6593 61.1431 35.8779 60.4499 38.202 60.0672L38.2175 59.6028L38.5634 59.7385L42.4089 49.9336L58.5198 53.7021L57.6919 64.18L58.062 64.2093L57.8703 64.6314C59.7835 66.0052 61.4645 67.6105 62.9288 69.3814L63.3135 69.1032L63.3766 69.5201L73.8769 67.9296L78.6838 83.5966L69.0399 88.0347L69.1807 88.3407L68.724 88.3706C68.5984 89.532 68.4477 90.6354 68.1807 91.7772C67.9148 92.9137 67.5123 94.0244 67.1057 95.1322L67.5018 95.3615ZM29.7992 82.7996C28.1774 89.7331 32.564 96.6967 39.5639 98.334C46.5639 99.9713 53.5841 95.6758 55.2059 88.7423C56.8276 81.8088 52.441 74.8453 45.4411 73.2079C38.4412 71.5706 31.421 75.8661 29.7992 82.7996Z" stroke="#0F4166" stroke-opacity="0.2" stroke-width="1.03139"/>
<path d="M855.494 344.984L855.164 345.05L857.049 354.432L857.05 354.44L857.052 354.448C857.144 354.842 857.215 355.196 857.264 355.454L841.804 360.744L836.859 351.319L836.653 351.427L836.579 350.984C834.238 350.846 831.924 350.41 829.685 349.671L829.456 350.076L829.213 349.795L822.058 356.009L822.058 356.009L822.051 356.015C821.742 356.293 821.467 356.533 821.266 356.705L808.787 345.945L814.446 337.014L814.194 336.854L814.552 336.573C813.467 334.448 812.721 332.248 812.24 329.95L811.791 329.942L811.867 329.723L801.818 326.218L804.774 310.159L805.818 310.211L805.819 310.211L815.325 310.698L815.343 310.353L815.77 310.534C816.385 309.551 817.074 308.591 817.84 307.703C818.606 306.815 819.409 306.043 820.274 305.258L820.03 304.871L820.36 304.805L818.27 294.398L833.79 289.082L838.691 298.556L839.065 298.363L839.067 298.838C841.361 298.979 843.648 299.393 845.885 300.13L846.114 299.726L846.357 300.007L854.308 293.1L866.839 303.905L861.25 312.806L861.564 313.004L861.199 313.289C862.258 315.393 863.004 317.594 863.481 319.842L863.95 319.774L863.813 320.172L873.855 323.629L870.855 339.74L860.252 339.204L860.235 339.54L859.817 339.355C859.167 340.326 858.523 341.234 857.757 342.122C856.995 343.006 856.123 343.804 855.25 344.597L855.494 344.984ZM827.905 316.381C823.255 321.774 823.915 329.977 829.36 334.672C834.804 339.366 843.015 338.813 847.665 333.42C852.315 328.028 851.655 319.824 846.21 315.13C840.766 310.435 832.555 310.988 827.905 316.381Z" stroke="#0F4166" stroke-opacity="0.2" stroke-width="1.03139"/>
<path d="M131.641 52.1065L131.379 52.3184L137.397 59.7592L137.402 59.7655L137.407 59.7717C137.671 60.078 137.898 60.3588 138.061 60.565L126.812 72.416L118.063 66.3564L117.931 66.5471L117.659 66.1886C115.521 67.1512 113.268 67.8367 110.942 68.2197L110.927 68.6841L110.581 68.5484L107.12 77.3704L107.12 77.3703L107.117 77.3792C106.972 77.7688 106.839 78.1092 106.741 78.3546L90.6959 74.6016L91.5729 64.0646L91.2753 64.0398L91.462 63.6257C89.5157 62.2447 87.8357 60.6405 86.3451 58.8277L85.9429 59.0286L85.9091 58.7992L75.3796 60.3493L70.5577 44.7486L71.5069 44.3111L71.5075 44.3108L80.1576 40.3376L80.0132 40.0233L80.4752 39.9861C80.5652 38.8298 80.7312 37.66 80.9984 36.5178C81.2655 35.376 81.6198 34.3203 82.0224 33.2236L81.6263 32.9943L81.8883 32.7825L75.214 24.528L86.5043 12.6261L95.237 18.7508L95.4791 18.4056L95.7006 18.8257C97.7984 17.8881 100.017 17.1949 102.341 16.8122L102.357 16.3478L102.703 16.4835L106.548 6.67863L122.659 10.4471L121.831 20.925L122.201 20.9543L122.009 21.3764C123.923 22.7502 125.604 24.3555 127.068 26.1264L127.453 25.8482L127.516 26.2651L138.016 24.6746L142.823 40.3416L133.179 44.7797L133.32 45.0857L132.863 45.1156C132.738 46.277 132.587 47.3804 132.32 48.5222C132.054 49.6587 131.651 50.7694 131.245 51.8772L131.641 52.1065ZM93.9383 39.5446C92.3166 46.4781 96.7032 53.4417 103.703 55.079C110.703 56.7163 117.723 52.4208 119.345 45.4873C120.967 38.5538 116.58 31.5903 109.58 29.9529C102.58 28.3156 95.5601 32.6111 93.9383 39.5446Z" stroke="#0F4166" stroke-opacity="0.2" stroke-width="1.03139"/>
<path d="M777.388 42.5064L777.102 83.6821C777.091 85.2056 776.274 86.6095 774.955 87.3713L738.738 108.281C737.418 109.043 735.794 109.049 734.469 108.296L698.667 87.9558C697.315 87.1874 696.483 85.7476 696.494 84.192L696.78 43.0164C696.791 41.4928 697.608 40.0889 698.927 39.3271L735.144 18.4174C736.463 17.6556 738.088 17.6499 739.413 18.4025L775.215 38.7427C776.567 39.5111 777.398 40.9509 777.388 42.5064Z" stroke="#0F4166" stroke-opacity="0.2" stroke-width="2.08919"/>
<path d="M93.3891 402.948L72.5537 367.432C71.7827 366.118 70.3732 365.31 68.8496 365.31L27.03 365.31C25.5064 365.31 24.0969 366.118 23.3259 367.432L2.49045 402.948C1.70331 404.29 1.70331 405.952 2.49045 407.294L23.3259 442.81C24.0969 444.124 25.5064 444.932 27.03 444.932L68.8496 444.932C70.3732 444.932 71.7827 444.124 72.5537 442.81L93.3891 407.294C94.1763 405.952 94.1763 404.29 93.3891 402.948Z" stroke="#0F4166" stroke-opacity="0.2" stroke-width="2.08919"/>
<path d="M108.389 326.948L87.5537 291.432C86.7827 290.118 85.3732 289.31 83.8496 289.31L42.03 289.31C40.5064 289.31 39.0969 290.118 38.3259 291.432L17.4904 326.948C16.7033 328.29 16.7033 329.952 17.4904 331.294L38.3259 366.81C39.0969 368.124 40.5064 368.932 42.03 368.932L83.8496 368.932C85.3732 368.932 86.7827 368.124 87.5537 366.81L108.389 331.294C109.176 329.952 109.176 328.29 108.389 326.948Z" stroke="#0F4166" stroke-opacity="0.2" stroke-width="2.08919"/>
<path d="M866.16 43.5222L865.874 84.6978C865.864 86.2214 865.046 87.6253 863.727 88.3871L827.51 109.297C826.191 110.059 824.566 110.064 823.242 109.312L787.44 88.9715C786.087 88.2031 785.256 86.7633 785.267 85.2078L785.552 44.0321C785.563 42.5086 786.38 41.1047 787.7 40.3429L823.916 19.4331C825.236 18.6713 826.86 18.6656 828.185 19.4182L863.987 39.7584C865.34 40.5268 866.171 41.9666 866.16 43.5222Z" stroke="#0F4166" stroke-opacity="0.2" stroke-width="2.08919"/>
<path d="M169.76 357.682L148.925 322.166C148.154 320.852 146.744 320.045 145.221 320.045L103.401 320.045C101.877 320.045 100.468 320.852 99.697 322.166L78.8615 357.682C78.0744 359.024 78.0744 360.686 78.8615 362.028L99.697 397.544C100.468 398.859 101.877 399.666 103.401 399.666L145.221 399.666C146.744 399.666 148.154 398.859 148.925 397.544L169.76 362.028C170.547 360.686 170.547 359.024 169.76 357.682Z" stroke="#0F4166" stroke-opacity="0.2" stroke-width="2.08919"/>
<path d="M184.76 281.682L163.925 246.166C163.154 244.852 161.744 244.045 160.221 244.045L118.401 244.045C116.877 244.045 115.468 244.852 114.697 246.166L93.8615 281.682C93.0744 283.024 93.0744 284.686 93.8615 286.028L114.697 321.544C115.468 322.859 116.877 323.666 118.401 323.666L160.221 323.666C161.744 323.666 163.154 322.859 163.925 321.544L184.76 286.028C185.547 284.686 185.547 283.024 184.76 281.682Z" stroke="#0F4166" stroke-opacity="0.2" stroke-width="2.08919"/>
<path d="M603.31 371.817L604.018 373.541L604.984 373.144L605.15 372.113L603.31 371.817ZM502.731 413.096L501.563 414.548L502.421 415.238L503.439 414.82L502.731 413.096ZM474.534 390.413C471.094 394.691 471.772 400.948 476.049 404.389C480.327 407.83 486.584 407.152 490.025 402.874C493.466 398.597 492.787 392.34 488.51 388.899C484.232 385.458 477.975 386.136 474.534 390.413ZM612.029 305.865L601.47 371.521L605.15 372.113L615.709 306.457L612.029 305.865ZM602.603 370.093L502.024 411.372L503.439 414.82L604.018 373.541L602.603 370.093ZM503.899 411.644L483.448 395.192L481.111 398.096L501.563 414.548L503.899 411.644Z" fill="#0F4166"/>
<path d="M294.062 62.0427L294.025 60.1793L292.981 60.1999L292.453 61.1018L294.062 62.0427ZM402.761 59.902L404.375 58.9701L403.825 58.0169L402.724 58.0386L402.761 59.902ZM421.265 91.9519L425.204 77.253L410.505 73.3145L406.566 88.0134L421.265 91.9519ZM262.098 120.387L295.671 62.9836L292.453 61.1018L258.881 118.505L262.098 120.387ZM294.099 63.9061L402.798 61.7653L402.724 58.0386L294.025 60.1793L294.099 63.9061ZM401.147 60.8338L414.271 83.5651L417.499 81.7013L404.375 58.9701L401.147 60.8338Z" fill="#0F4166"/>
<path d="M678.406 254.572L650.526 302.098C649.494 303.856 647.608 304.937 645.569 304.937L589.609 304.937C587.57 304.937 585.684 303.856 584.652 302.098L556.771 254.572C555.718 252.777 555.718 250.552 556.771 248.757L584.652 201.231C585.684 199.473 587.57 198.392 589.609 198.392L645.569 198.392C647.608 198.392 649.494 199.473 650.526 201.231L678.406 248.757C679.46 250.552 679.46 252.777 678.406 254.572Z" fill="#0F4166" stroke="#052D4A" stroke-width="2.79562"/>
<path d="M329.956 173.361L302.076 220.886C301.044 222.645 299.158 223.725 297.119 223.725L241.159 223.725C239.12 223.725 237.234 222.645 236.202 220.886L208.321 173.361C207.268 171.565 207.268 169.34 208.321 167.545L236.202 120.019C237.234 118.261 239.12 117.181 241.159 117.181L297.119 117.181C299.158 117.181 301.044 118.261 302.076 120.019L329.956 167.545C331.01 169.34 331.01 171.565 329.956 173.361Z" fill="#0F4166" stroke="#052D4A" stroke-width="2.79562"/>
<path d="M639.214 138.026L611.333 185.552C610.302 187.31 608.416 188.391 606.377 188.391L550.416 188.391C548.378 188.391 546.491 187.31 545.46 185.552L517.579 138.026C516.526 136.231 516.526 134.006 517.579 132.211L545.46 84.6851C546.491 82.9266 548.378 81.8463 550.416 81.8463L606.377 81.8463C608.416 81.8463 610.302 82.9266 611.333 84.6851L639.214 132.211C640.267 134.006 640.267 136.231 639.214 138.026Z" fill="#0F4166" stroke="#052D4A" stroke-width="2.79562"/>
<path d="M555.55 232.646L497.616 331.4C496.584 333.159 494.698 334.239 492.659 334.239L376.593 334.239C374.554 334.239 372.668 333.159 371.636 331.4L313.703 232.646C312.649 230.851 312.649 228.626 313.703 226.831L371.636 128.077C372.668 126.319 374.554 125.238 376.593 125.238L492.659 125.238C494.698 125.238 496.584 126.319 497.616 128.077L555.55 226.831C556.603 228.626 556.603 230.851 555.55 232.646Z" fill="#8CB1CC" stroke="#0F4166" stroke-width="2.79562"/>
<path d="M332.889 294.797L305.009 342.322C303.977 344.081 302.091 345.161 300.052 345.161L244.092 345.161C242.053 345.161 240.167 344.081 239.135 342.322L211.254 294.797C210.201 293.001 210.201 290.776 211.254 288.981L239.135 241.455C240.167 239.697 242.053 238.617 244.092 238.617L300.052 238.617C302.091 238.617 303.977 239.697 305.009 241.455L332.889 288.981C333.943 290.776 333.943 293.001 332.889 294.797Z" fill="#0F4166" stroke="#052D4A" stroke-width="2.79562"/>
<path d="M380.053 256.925H363.49L382.151 200.391H403.13L421.791 256.925H405.228L392.861 215.96H392.42L380.053 256.925ZM376.961 234.621H408.099V246.104H376.961V234.621Z" fill="white"/>
<path d="M427.236 256.925V200.391H451.638C455.834 200.391 459.505 201.219 462.652 202.876C465.799 204.532 468.246 206.86 469.995 209.86C471.743 212.859 472.617 216.365 472.617 220.377C472.617 224.426 471.715 227.931 469.912 230.894C468.127 233.857 465.615 236.139 462.376 237.74C459.155 239.341 455.392 240.142 451.086 240.142H436.511V228.217H447.994C449.797 228.217 451.334 227.904 452.604 227.278C453.892 226.634 454.877 225.723 455.558 224.545C456.257 223.367 456.607 221.978 456.607 220.377C456.607 218.757 456.257 217.377 455.558 216.236C454.877 215.077 453.892 214.194 452.604 213.586C451.334 212.961 449.797 212.648 447.994 212.648H442.584V256.925H427.236Z" fill="white"/>
<path d="M493.596 200.391V256.925H478.248V200.391H493.596Z" fill="white"/>
<path d="M280.494 175.733C280.705 173.991 280.864 172.248 280.864 170.453C280.864 168.657 280.705 166.915 280.494 165.172H289.418C289.841 166.862 290.105 168.631 290.105 170.453C290.105 172.274 289.841 174.043 289.418 175.733M275.821 190.413C277.405 187.483 278.619 184.314 279.464 181.014H287.253C284.695 185.419 280.637 188.755 275.821 190.413ZM275.161 175.733H262.804C262.54 173.991 262.381 172.248 262.381 170.453C262.381 168.657 262.54 166.888 262.804 165.172H275.161C275.398 166.888 275.583 168.657 275.583 170.453C275.583 172.248 275.398 173.991 275.161 175.733ZM268.982 191.469C266.791 188.301 265.022 184.789 263.939 181.014H274.025C272.943 184.789 271.174 188.301 268.982 191.469ZM258.421 159.891H250.711C253.243 155.475 257.298 152.133 262.117 150.492C260.533 153.423 259.345 156.591 258.421 159.891ZM250.711 181.014H258.421C259.345 184.314 260.533 187.483 262.117 190.413C257.308 188.754 253.259 185.417 250.711 181.014ZM248.546 175.733C248.124 174.043 247.86 172.274 247.86 170.453C247.86 168.631 248.124 166.862 248.546 165.172H257.47C257.259 166.915 257.101 168.657 257.101 170.453C257.101 172.248 257.259 173.991 257.47 175.733M268.982 149.409C271.174 152.578 272.943 156.116 274.025 159.891H263.939C265.022 156.116 266.791 152.578 268.982 149.409ZM287.253 159.891H279.464C278.638 156.621 277.414 153.465 275.821 150.492C280.679 152.155 284.718 155.508 287.253 159.891ZM268.982 144.049C254.381 144.049 242.579 155.931 242.579 170.453C242.579 177.455 245.361 184.171 250.312 189.122C252.764 191.574 255.675 193.519 258.878 194.846C262.082 196.173 265.515 196.856 268.982 196.856C275.985 196.856 282.7 194.074 287.652 189.122C292.604 184.171 295.385 177.455 295.385 170.453C295.385 166.985 294.702 163.552 293.375 160.349C292.049 157.145 290.104 154.234 287.652 151.783C285.2 149.331 282.29 147.386 279.086 146.059C275.883 144.732 272.45 144.049 268.982 144.049Z" fill="#8CB1CC"/>
<path d="M271.553 286.504H275.954V279.903H282.555V275.503H275.954V268.902H271.553V275.503H264.953V279.903H271.553M262.752 306.307C260.332 306.307 258.352 308.287 258.352 310.707C258.352 313.127 260.332 315.108 262.752 315.108C265.173 315.108 267.153 313.127 267.153 310.707C267.153 308.287 265.173 306.307 262.752 306.307ZM284.755 306.307C282.335 306.307 280.354 308.287 280.354 310.707C280.354 313.127 282.335 315.108 284.755 315.108C287.175 315.108 289.155 313.127 289.155 310.707C289.155 308.287 287.175 306.307 284.755 306.307ZM263.192 299.266V299.046L265.173 295.305H281.455C282.995 295.305 284.535 294.425 285.195 293.105L293.776 277.703L290.036 275.503L281.455 290.905H266.053L256.812 271.102H249.551V275.503H253.951L261.872 292.225L258.792 297.506C258.572 298.166 258.352 298.826 258.352 299.706C258.352 302.126 260.332 304.106 262.752 304.106H289.155V299.706H263.632C263.412 299.706 263.192 299.486 263.192 299.266Z" fill="#8CB1CC"/>
<path d="M578.241 121.917C584.006 121.917 588.979 126.009 590.101 131.664L590.761 134.964L594.127 135.206C595.781 135.318 597.332 136.051 598.467 137.26C599.602 138.468 600.237 140.062 600.244 141.719C600.244 145.35 597.274 148.32 593.643 148.32H565.04C560.177 148.32 556.239 144.382 556.239 139.519C556.239 135.008 559.605 131.246 564.072 130.784L566.426 130.542L567.526 128.452C568.538 126.482 570.074 124.83 571.964 123.677C573.855 122.524 576.027 121.915 578.241 121.917ZM578.241 117.516C571.883 117.516 566.36 121.125 563.61 126.405C560.376 126.755 557.385 128.287 555.212 130.708C553.04 133.128 551.838 136.266 551.838 139.519C551.838 146.802 557.757 152.721 565.04 152.721H593.643C599.716 152.721 604.645 147.792 604.645 141.719C604.645 135.911 600.134 131.202 594.413 130.806C593.674 127.061 591.658 123.688 588.708 121.264C585.759 118.84 582.059 117.516 578.241 117.516Z" fill="#8CB1CC"/>
<path d="M596.302 231.322C595.744 231.322 595.283 231.195 594.918 230.94C594.554 230.683 594.302 230.314 594.162 229.834C594.023 229.354 594.011 228.779 594.127 228.107C594.242 227.434 594.448 226.862 594.745 226.392C595.044 225.922 595.414 225.564 595.857 225.319C596.301 225.074 596.8 224.952 597.354 224.952C597.908 224.952 598.366 225.074 598.728 225.319C599.091 225.564 599.343 225.922 599.484 226.392C599.626 226.86 599.641 227.432 599.529 228.107C599.418 228.781 599.212 229.357 598.914 229.837C598.617 230.317 598.245 230.685 597.799 230.94C597.355 231.195 596.856 231.322 596.302 231.322ZM596.529 229.972C596.816 229.972 597.073 229.822 597.3 229.524C597.529 229.223 597.698 228.751 597.808 228.107C597.88 227.689 597.897 227.346 597.859 227.079C597.821 226.81 597.739 226.612 597.614 226.485C597.488 226.355 597.33 226.29 597.139 226.29C596.852 226.29 596.591 226.437 596.356 226.73C596.123 227.021 595.953 227.48 595.848 228.107C595.776 228.538 595.76 228.89 595.8 229.165C595.84 229.44 595.923 229.643 596.051 229.775C596.178 229.906 596.338 229.972 596.529 229.972ZM603.823 225.035L602.807 231.155H601.146L601.911 226.565H601.875L600.405 227.366L600.632 225.956L602.293 225.035H603.823ZM606.705 231.322C606.147 231.322 605.686 231.195 605.322 230.94C604.957 230.683 604.705 230.314 604.566 229.834C604.426 229.354 604.414 228.779 604.53 228.107C604.645 227.434 604.851 226.862 605.148 226.392C605.447 225.922 605.818 225.564 606.26 225.319C606.704 225.074 607.203 224.952 607.757 224.952C608.311 224.952 608.769 225.074 609.131 225.319C609.494 225.564 609.746 225.922 609.887 226.392C610.029 226.86 610.044 227.432 609.932 228.107C609.821 228.781 609.616 229.357 609.317 229.837C609.02 230.317 608.648 230.685 608.202 230.94C607.758 231.195 607.259 231.322 606.705 231.322ZM606.932 229.972C607.219 229.972 607.476 229.822 607.703 229.524C607.932 229.223 608.102 228.751 608.211 228.107C608.283 227.689 608.3 227.346 608.262 227.079C608.224 226.81 608.142 226.612 608.017 226.485C607.891 226.355 607.733 226.29 607.542 226.29C607.255 226.29 606.994 226.437 606.759 226.73C606.526 227.021 606.356 227.48 606.251 228.107C606.179 228.538 606.163 228.89 606.203 229.165C606.243 229.44 606.327 229.643 606.454 229.775C606.582 229.906 606.741 229.972 606.932 229.972ZM612.852 231.322C612.294 231.322 611.833 231.195 611.468 230.94C611.104 230.683 610.852 230.314 610.712 229.834C610.573 229.354 610.561 228.779 610.676 228.107C610.792 227.434 610.998 226.862 611.295 226.392C611.594 225.922 611.964 225.564 612.406 225.319C612.851 225.074 613.35 224.952 613.903 224.952C614.457 224.952 614.915 225.074 615.278 225.319C615.641 225.564 615.893 225.922 616.034 226.392C616.175 226.86 616.19 227.432 616.079 228.107C615.967 228.781 615.762 229.357 615.463 229.837C615.166 230.317 614.795 230.685 614.349 230.94C613.904 231.195 613.405 231.322 612.852 231.322ZM613.079 229.972C613.366 229.972 613.623 229.822 613.85 229.524C614.079 229.223 614.248 228.751 614.358 228.107C614.429 227.689 614.446 227.346 614.408 227.079C614.371 226.81 614.289 226.612 614.163 226.485C614.038 226.355 613.88 226.29 613.688 226.29C613.401 226.29 613.141 226.437 612.905 226.73C612.672 227.021 612.503 227.48 612.397 228.107C612.326 228.538 612.31 228.89 612.35 229.165C612.389 229.44 612.473 229.643 612.601 229.775C612.728 229.906 612.888 229.972 613.079 229.972ZM620.373 225.035L619.357 231.155H617.695L618.46 226.565H618.425L616.954 227.366L617.181 225.956L618.843 225.035H620.373ZM623.255 231.322C622.697 231.322 622.236 231.195 621.871 230.94C621.507 230.683 621.255 230.314 621.115 229.834C620.976 229.354 620.964 228.779 621.079 228.107C621.195 227.434 621.401 226.862 621.698 226.392C621.997 225.922 622.367 225.564 622.81 225.319C623.254 225.074 623.753 224.952 624.307 224.952C624.86 224.952 625.319 225.074 625.681 225.319C626.044 225.564 626.296 225.922 626.437 226.392C626.579 226.86 626.594 227.432 626.482 228.107C626.37 228.781 626.165 229.357 625.866 229.837C625.57 230.317 625.198 230.685 624.752 230.94C624.308 231.195 623.809 231.322 623.255 231.322ZM623.482 229.972C623.769 229.972 624.026 229.822 624.253 229.524C624.482 229.223 624.651 228.751 624.761 228.107C624.833 227.689 624.849 227.346 624.812 227.079C624.774 226.81 624.692 226.612 624.567 226.485C624.441 226.355 624.283 226.29 624.091 226.29C623.805 226.29 623.544 226.437 623.309 226.73C623.076 227.021 622.906 227.48 622.801 228.107C622.729 228.538 622.713 228.89 622.753 229.165C622.793 229.44 622.876 229.643 623.004 229.775C623.131 229.906 623.291 229.972 623.482 229.972ZM629.401 231.322C628.844 231.322 628.382 231.195 628.018 230.94C627.653 230.683 627.401 230.314 627.262 229.834C627.122 229.354 627.11 228.779 627.226 228.107C627.342 227.434 627.548 226.862 627.845 226.392C628.143 225.922 628.514 225.564 628.956 225.319C629.4 225.074 629.899 224.952 630.453 224.952C631.007 224.952 631.465 225.074 631.828 225.319C632.19 225.564 632.442 225.922 632.584 226.392C632.725 226.86 632.74 227.432 632.629 228.107C632.517 228.781 632.312 229.357 632.013 229.837C631.716 230.317 631.345 230.685 630.898 230.94C630.454 231.195 629.955 231.322 629.401 231.322ZM629.628 229.972C629.915 229.972 630.172 229.822 630.399 229.524C630.628 229.223 630.798 228.751 630.907 228.107C630.979 227.689 630.996 227.346 630.958 227.079C630.92 226.81 630.839 226.612 630.713 226.485C630.588 226.355 630.429 226.29 630.238 226.29C629.951 226.29 629.69 226.437 629.455 226.73C629.222 227.021 629.053 227.48 628.947 228.107C628.875 228.538 628.86 228.89 628.899 229.165C628.939 229.44 629.023 229.643 629.15 229.775C629.278 229.906 629.437 229.972 629.628 229.972ZM636.922 225.035L635.906 231.155H634.245L635.01 226.565H634.974L633.504 227.366L633.731 225.956L635.393 225.035H636.922ZM641.179 225.035L640.163 231.155H638.502L639.267 226.565H639.231L637.761 227.366L637.988 225.956L639.649 225.035H641.179ZM597.676 237.035L596.661 243.155H594.999L595.764 238.565H595.728L594.258 239.366L594.485 237.956L596.147 237.035H597.676ZM600.559 243.322C600.001 243.322 599.54 243.195 599.175 242.94C598.81 242.683 598.558 242.314 598.419 241.834C598.28 241.354 598.268 240.779 598.383 240.107C598.499 239.434 598.705 238.862 599.002 238.392C599.301 237.922 599.671 237.564 600.113 237.319C600.558 237.074 601.057 236.952 601.61 236.952C602.164 236.952 602.622 237.074 602.985 237.319C603.347 237.564 603.599 237.922 603.741 238.392C603.882 238.86 603.897 239.432 603.786 240.107C603.674 240.781 603.469 241.357 603.17 241.837C602.873 242.317 602.502 242.685 602.056 242.94C601.611 243.195 601.112 243.322 600.559 243.322ZM600.786 241.972C601.072 241.972 601.329 241.822 601.557 241.524C601.786 241.223 601.955 240.751 602.065 240.107C602.136 239.689 602.153 239.346 602.115 239.079C602.077 238.81 601.996 238.612 601.87 238.485C601.745 238.355 601.586 238.29 601.395 238.29C601.108 238.29 600.847 238.437 600.612 238.73C600.379 239.021 600.21 239.48 600.104 240.107C600.033 240.538 600.017 240.89 600.057 241.165C600.096 241.44 600.18 241.643 600.308 241.775C600.435 241.906 600.594 241.972 600.786 241.972ZM608.08 237.035L607.064 243.155H605.402L606.167 238.565H606.131L604.661 239.366L604.888 237.956L606.55 237.035H608.08ZM610.962 243.322C610.404 243.322 609.943 243.195 609.578 242.94C609.214 242.683 608.962 242.314 608.822 241.834C608.683 241.354 608.671 240.779 608.786 240.107C608.902 239.434 609.108 238.862 609.405 238.392C609.704 237.922 610.074 237.564 610.516 237.319C610.961 237.074 611.46 236.952 612.013 236.952C612.567 236.952 613.025 237.074 613.388 237.319C613.751 237.564 614.003 237.922 614.144 238.392C614.285 238.86 614.3 239.432 614.189 240.107C614.077 240.781 613.872 241.357 613.573 241.837C613.276 242.317 612.905 242.685 612.459 242.94C612.014 243.195 611.515 243.322 610.962 243.322ZM611.189 241.972C611.476 241.972 611.733 241.822 611.96 241.524C612.189 241.223 612.358 240.751 612.468 240.107C612.539 239.689 612.556 239.346 612.518 239.079C612.481 238.81 612.399 238.612 612.273 238.485C612.148 238.355 611.99 238.29 611.798 238.29C611.511 238.29 611.251 238.437 611.015 238.73C610.782 239.021 610.613 239.48 610.507 240.107C610.436 240.538 610.42 240.89 610.46 241.165C610.5 241.44 610.583 241.643 610.711 241.775C610.838 241.906 610.998 241.972 611.189 241.972ZM617.108 243.322C616.55 243.322 616.089 243.195 615.725 242.94C615.36 242.683 615.108 242.314 614.969 241.834C614.829 241.354 614.817 240.779 614.933 240.107C615.048 239.434 615.255 238.862 615.551 238.392C615.85 237.922 616.221 237.564 616.663 237.319C617.107 237.074 617.606 236.952 618.16 236.952C618.714 236.952 619.172 237.074 619.535 237.319C619.897 237.564 620.149 237.922 620.291 238.392C620.432 238.86 620.447 239.432 620.335 240.107C620.224 240.781 620.019 241.357 619.72 241.837C619.423 242.317 619.052 242.685 618.605 242.94C618.161 243.195 617.662 243.322 617.108 243.322ZM617.335 241.972C617.622 241.972 617.879 241.822 618.106 241.524C618.335 241.223 618.505 240.751 618.614 240.107C618.686 239.689 618.703 239.346 618.665 239.079C618.627 238.81 618.546 238.612 618.42 238.485C618.295 238.355 618.136 238.29 617.945 238.29C617.658 238.29 617.397 238.437 617.162 238.73C616.929 239.021 616.76 239.48 616.654 240.107C616.582 240.538 616.566 240.89 616.606 241.165C616.646 241.44 616.73 241.643 616.857 241.775C616.985 241.906 617.144 241.972 617.335 241.972ZM623.255 243.322C622.697 243.322 622.236 243.195 621.871 242.94C621.507 242.683 621.255 242.314 621.115 241.834C620.976 241.354 620.964 240.779 621.079 240.107C621.195 239.434 621.401 238.862 621.698 238.392C621.997 237.922 622.367 237.564 622.81 237.319C623.254 237.074 623.753 236.952 624.307 236.952C624.86 236.952 625.319 237.074 625.681 237.319C626.044 237.564 626.296 237.922 626.437 238.392C626.579 238.86 626.594 239.432 626.482 240.107C626.37 240.781 626.165 241.357 625.866 241.837C625.57 242.317 625.198 242.685 624.752 242.94C624.308 243.195 623.809 243.322 623.255 243.322ZM623.482 241.972C623.769 241.972 624.026 241.822 624.253 241.524C624.482 241.223 624.651 240.751 624.761 240.107C624.833 239.689 624.849 239.346 624.812 239.079C624.774 238.81 624.692 238.612 624.567 238.485C624.441 238.355 624.283 238.29 624.091 238.29C623.805 238.29 623.544 238.437 623.309 238.73C623.076 239.021 622.906 239.48 622.801 240.107C622.729 240.538 622.713 240.89 622.753 241.165C622.793 241.44 622.876 241.643 623.004 241.775C623.131 241.906 623.291 241.972 623.482 241.972ZM629.401 243.322C628.844 243.322 628.382 243.195 628.018 242.94C627.653 242.683 627.401 242.314 627.262 241.834C627.122 241.354 627.11 240.779 627.226 240.107C627.342 239.434 627.548 238.862 627.845 238.392C628.143 237.922 628.514 237.564 628.956 237.319C629.4 237.074 629.899 236.952 630.453 236.952C631.007 236.952 631.465 237.074 631.828 237.319C632.19 237.564 632.442 237.922 632.584 238.392C632.725 238.86 632.74 239.432 632.629 240.107C632.517 240.781 632.312 241.357 632.013 241.837C631.716 242.317 631.345 242.685 630.898 242.94C630.454 243.195 629.955 243.322 629.401 243.322ZM629.628 241.972C629.915 241.972 630.172 241.822 630.399 241.524C630.628 241.223 630.798 240.751 630.907 240.107C630.979 239.689 630.996 239.346 630.958 239.079C630.92 238.81 630.839 238.612 630.713 238.485C630.588 238.355 630.429 238.29 630.238 238.29C629.951 238.29 629.69 238.437 629.455 238.73C629.222 239.021 629.053 239.48 628.947 240.107C628.875 240.538 628.86 240.89 628.899 241.165C628.939 241.44 629.023 241.643 629.15 241.775C629.278 241.906 629.437 241.972 629.628 241.972ZM636.922 237.035L635.906 243.155H634.245L635.01 238.565H634.974L633.504 239.366L633.731 237.956L635.393 237.035H636.922ZM641.179 237.035L640.163 243.155H638.502L639.267 238.565H639.231L637.761 239.366L637.988 237.956L639.649 237.035H641.179ZM596.302 255.322C595.744 255.322 595.283 255.195 594.918 254.94C594.554 254.683 594.302 254.314 594.162 253.834C594.023 253.354 594.011 252.779 594.127 252.107C594.242 251.434 594.448 250.862 594.745 250.392C595.044 249.922 595.414 249.564 595.857 249.319C596.301 249.074 596.8 248.952 597.354 248.952C597.908 248.952 598.366 249.074 598.728 249.319C599.091 249.564 599.343 249.922 599.484 250.392C599.626 250.86 599.641 251.432 599.529 252.107C599.418 252.781 599.212 253.357 598.914 253.837C598.617 254.317 598.245 254.685 597.799 254.94C597.355 255.195 596.856 255.322 596.302 255.322ZM596.529 253.972C596.816 253.972 597.073 253.822 597.3 253.524C597.529 253.223 597.698 252.751 597.808 252.107C597.88 251.689 597.897 251.346 597.859 251.079C597.821 250.81 597.739 250.612 597.614 250.485C597.488 250.355 597.33 250.29 597.139 250.29C596.852 250.29 596.591 250.437 596.356 250.73C596.123 251.021 595.953 251.48 595.848 252.107C595.776 252.538 595.76 252.89 595.8 253.165C595.84 253.44 595.923 253.643 596.051 253.775C596.178 253.906 596.338 253.972 596.529 253.972ZM603.823 249.035L602.807 255.155H601.146L601.911 250.565H601.875L600.405 251.366L600.632 249.956L602.293 249.035H603.823ZM606.705 255.322C606.147 255.322 605.686 255.195 605.322 254.94C604.957 254.683 604.705 254.314 604.566 253.834C604.426 253.354 604.414 252.779 604.53 252.107C604.645 251.434 604.851 250.862 605.148 250.392C605.447 249.922 605.818 249.564 606.26 249.319C606.704 249.074 607.203 248.952 607.757 248.952C608.311 248.952 608.769 249.074 609.131 249.319C609.494 249.564 609.746 249.922 609.887 250.392C610.029 250.86 610.044 251.432 609.932 252.107C609.821 252.781 609.616 253.357 609.317 253.837C609.02 254.317 608.648 254.685 608.202 254.94C607.758 255.195 607.259 255.322 606.705 255.322ZM606.932 253.972C607.219 253.972 607.476 253.822 607.703 253.524C607.932 253.223 608.102 252.751 608.211 252.107C608.283 251.689 608.3 251.346 608.262 251.079C608.224 250.81 608.142 250.612 608.017 250.485C607.891 250.355 607.733 250.29 607.542 250.29C607.255 250.29 606.994 250.437 606.759 250.73C606.526 251.021 606.356 251.48 606.251 252.107C606.179 252.538 606.163 252.89 606.203 253.165C606.243 253.44 606.327 253.643 606.454 253.775C606.582 253.906 606.741 253.972 606.932 253.972ZM614.226 249.035L613.21 255.155H611.549L612.314 250.565H612.278L610.808 251.366L611.035 249.956L612.696 249.035H614.226ZM617.108 255.322C616.55 255.322 616.089 255.195 615.725 254.94C615.36 254.683 615.108 254.314 614.969 253.834C614.829 253.354 614.817 252.779 614.933 252.107C615.048 251.434 615.255 250.862 615.551 250.392C615.85 249.922 616.221 249.564 616.663 249.319C617.107 249.074 617.606 248.952 618.16 248.952C618.714 248.952 619.172 249.074 619.535 249.319C619.897 249.564 620.149 249.922 620.291 250.392C620.432 250.86 620.447 251.432 620.335 252.107C620.224 252.781 620.019 253.357 619.72 253.837C619.423 254.317 619.052 254.685 618.605 254.94C618.161 255.195 617.662 255.322 617.108 255.322ZM617.335 253.972C617.622 253.972 617.879 253.822 618.106 253.524C618.335 253.223 618.505 252.751 618.614 252.107C618.686 251.689 618.703 251.346 618.665 251.079C618.627 250.81 618.546 250.612 618.42 250.485C618.295 250.355 618.136 250.29 617.945 250.29C617.658 250.29 617.397 250.437 617.162 250.73C616.929 251.021 616.76 251.48 616.654 252.107C616.582 252.538 616.566 252.89 616.606 253.165C616.646 253.44 616.73 253.643 616.857 253.775C616.985 253.906 617.144 253.972 617.335 253.972ZM623.255 255.322C622.697 255.322 622.236 255.195 621.871 254.94C621.507 254.683 621.255 254.314 621.115 253.834C620.976 253.354 620.964 252.779 621.079 252.107C621.195 251.434 621.401 250.862 621.698 250.392C621.997 249.922 622.367 249.564 622.81 249.319C623.254 249.074 623.753 248.952 624.307 248.952C624.86 248.952 625.319 249.074 625.681 249.319C626.044 249.564 626.296 249.922 626.437 250.392C626.579 250.86 626.594 251.432 626.482 252.107C626.37 252.781 626.165 253.357 625.866 253.837C625.57 254.317 625.198 254.685 624.752 254.94C624.308 255.195 623.809 255.322 623.255 255.322ZM623.482 253.972C623.769 253.972 624.026 253.822 624.253 253.524C624.482 253.223 624.651 252.751 624.761 252.107C624.833 251.689 624.849 251.346 624.812 251.079C624.774 250.81 624.692 250.612 624.567 250.485C624.441 250.355 624.283 250.29 624.091 250.29C623.805 250.29 623.544 250.437 623.309 250.73C623.076 251.021 622.906 251.48 622.801 252.107C622.729 252.538 622.713 252.89 622.753 253.165C622.793 253.44 622.876 253.643 623.004 253.775C623.131 253.906 623.291 253.972 623.482 253.972ZM630.776 249.035L629.76 255.155H628.099L628.863 250.565H628.828L627.357 251.366L627.585 249.956L629.246 249.035H630.776ZM635.032 249.035L634.017 255.155H632.355L633.12 250.565H633.084L631.614 251.366L631.841 249.956L633.503 249.035H635.032ZM637.915 255.322C637.357 255.322 636.896 255.195 636.531 254.94C636.166 254.683 635.914 254.314 635.775 253.834C635.636 253.354 635.624 252.779 635.739 252.107C635.855 251.434 636.061 250.862 636.358 250.392C636.657 249.922 637.027 249.564 637.469 249.319C637.914 249.074 638.413 248.952 638.966 248.952C639.52 248.952 639.978 249.074 640.341 249.319C640.703 249.564 640.955 249.922 641.097 250.392C641.238 250.86 641.253 251.432 641.142 252.107C641.03 252.781 640.825 253.357 640.526 253.837C640.229 254.317 639.858 254.685 639.412 254.94C638.967 255.195 638.468 255.322 637.915 255.322ZM638.142 253.972C638.428 253.972 638.685 253.822 638.913 253.524C639.142 253.223 639.311 252.751 639.421 252.107C639.492 251.689 639.509 251.346 639.471 251.079C639.433 250.81 639.352 250.612 639.226 250.485C639.101 250.355 638.942 250.29 638.751 250.29C638.464 250.29 638.203 250.437 637.968 250.73C637.735 251.021 637.566 251.48 637.46 252.107C637.389 252.538 637.373 252.89 637.413 253.165C637.452 253.44 637.536 253.643 637.664 253.775C637.791 253.906 637.95 253.972 638.142 253.972ZM597.676 260.035L596.661 266.155H594.999L595.764 261.565H595.728L594.258 262.366L594.485 260.956L596.147 260.035H597.676ZM600.559 266.322C600.001 266.322 599.54 266.195 599.175 265.94C598.81 265.683 598.558 265.314 598.419 264.834C598.28 264.354 598.268 263.779 598.383 263.107C598.499 262.434 598.705 261.862 599.002 261.392C599.301 260.922 599.671 260.564 600.113 260.319C600.558 260.074 601.057 259.952 601.61 259.952C602.164 259.952 602.622 260.074 602.985 260.319C603.347 260.564 603.599 260.922 603.741 261.392C603.882 261.86 603.897 262.432 603.786 263.107C603.674 263.781 603.469 264.357 603.17 264.837C602.873 265.317 602.502 265.685 602.056 265.94C601.611 266.195 601.112 266.322 600.559 266.322ZM600.786 264.972C601.072 264.972 601.329 264.822 601.557 264.524C601.786 264.223 601.955 263.751 602.065 263.107C602.136 262.689 602.153 262.346 602.115 262.079C602.077 261.81 601.996 261.612 601.87 261.485C601.745 261.355 601.586 261.29 601.395 261.29C601.108 261.29 600.847 261.437 600.612 261.73C600.379 262.021 600.21 262.48 600.104 263.107C600.033 263.538 600.017 263.89 600.057 264.165C600.096 264.44 600.18 264.643 600.308 264.775C600.435 264.906 600.594 264.972 600.786 264.972ZM608.08 260.035L607.064 266.155H605.402L606.167 261.565H606.131L604.661 262.366L604.888 260.956L606.55 260.035H608.08ZM610.962 266.322C610.404 266.322 609.943 266.195 609.578 265.94C609.214 265.683 608.962 265.314 608.822 264.834C608.683 264.354 608.671 263.779 608.786 263.107C608.902 262.434 609.108 261.862 609.405 261.392C609.704 260.922 610.074 260.564 610.516 260.319C610.961 260.074 611.46 259.952 612.013 259.952C612.567 259.952 613.025 260.074 613.388 260.319C613.751 260.564 614.003 260.922 614.144 261.392C614.285 261.86 614.3 262.432 614.189 263.107C614.077 263.781 613.872 264.357 613.573 264.837C613.276 265.317 612.905 265.685 612.459 265.94C612.014 266.195 611.515 266.322 610.962 266.322ZM611.189 264.972C611.476 264.972 611.733 264.822 611.96 264.524C612.189 264.223 612.358 263.751 612.468 263.107C612.539 262.689 612.556 262.346 612.518 262.079C612.481 261.81 612.399 261.612 612.273 261.485C612.148 261.355 611.99 261.29 611.798 261.29C611.511 261.29 611.251 261.437 611.015 261.73C610.782 262.021 610.613 262.48 610.507 263.107C610.436 263.538 610.42 263.89 610.46 264.165C610.5 264.44 610.583 264.643 610.711 264.775C610.838 264.906 610.998 264.972 611.189 264.972ZM618.483 260.035L617.467 266.155H615.805L616.57 261.565H616.535L615.064 262.366L615.291 260.956L616.953 260.035H618.483ZM621.365 266.322C620.807 266.322 620.346 266.195 619.981 265.94C619.617 265.683 619.365 265.314 619.225 264.834C619.086 264.354 619.074 263.779 619.189 263.107C619.305 262.434 619.511 261.862 619.808 261.392C620.107 260.922 620.477 260.564 620.92 260.319C621.364 260.074 621.863 259.952 622.417 259.952C622.97 259.952 623.429 260.074 623.791 260.319C624.154 260.564 624.406 260.922 624.547 261.392C624.689 261.86 624.704 262.432 624.592 263.107C624.48 263.781 624.275 264.357 623.976 264.837C623.68 265.317 623.308 265.685 622.862 265.94C622.418 266.195 621.919 266.322 621.365 266.322ZM621.592 264.972C621.879 264.972 622.136 264.822 622.363 264.524C622.592 264.223 622.761 263.751 622.871 263.107C622.943 262.689 622.959 262.346 622.922 262.079C622.884 261.81 622.802 261.612 622.677 261.485C622.551 261.355 622.393 261.29 622.201 261.29C621.915 261.29 621.654 261.437 621.419 261.73C621.186 262.021 621.016 262.48 620.911 263.107C620.839 263.538 620.823 263.89 620.863 264.165C620.903 264.44 620.986 264.643 621.114 264.775C621.241 264.906 621.401 264.972 621.592 264.972ZM627.511 266.322C626.954 266.322 626.492 266.195 626.128 265.94C625.763 265.683 625.511 265.314 625.372 264.834C625.232 264.354 625.22 263.779 625.336 263.107C625.452 262.434 625.658 261.862 625.955 261.392C626.253 260.922 626.624 260.564 627.066 260.319C627.51 260.074 628.009 259.952 628.563 259.952C629.117 259.952 629.575 260.074 629.938 260.319C630.3 260.564 630.552 260.922 630.694 261.392C630.835 261.86 630.85 262.432 630.739 263.107C630.627 263.781 630.422 264.357 630.123 264.837C629.826 265.317 629.455 265.685 629.008 265.94C628.564 266.195 628.065 266.322 627.511 266.322ZM627.738 264.972C628.025 264.972 628.282 264.822 628.509 264.524C628.738 264.223 628.908 263.751 629.017 263.107C629.089 262.689 629.106 262.346 629.068 262.079C629.03 261.81 628.949 261.612 628.823 261.485C628.698 261.355 628.539 261.29 628.348 261.29C628.061 261.29 627.8 261.437 627.565 261.73C627.332 262.021 627.163 262.48 627.057 263.107C626.985 263.538 626.97 263.89 627.009 264.165C627.049 264.44 627.133 264.643 627.26 264.775C627.388 264.906 627.547 264.972 627.738 264.972ZM635.032 260.035L634.017 266.155H632.355L633.12 261.565H633.084L631.614 262.366L631.841 260.956L633.503 260.035H635.032ZM637.915 266.322C637.357 266.322 636.896 266.195 636.531 265.94C636.166 265.683 635.914 265.314 635.775 264.834C635.636 264.354 635.624 263.779 635.739 263.107C635.855 262.434 636.061 261.862 636.358 261.392C636.657 260.922 637.027 260.564 637.469 260.319C637.914 260.074 638.413 259.952 638.966 259.952C639.52 259.952 639.978 260.074 640.341 260.319C640.703 260.564 640.955 260.922 641.097 261.392C641.238 261.86 641.253 262.432 641.142 263.107C641.03 263.781 640.825 264.357 640.526 264.837C640.229 265.317 639.858 265.685 639.412 265.94C638.967 266.195 638.468 266.322 637.915 266.322ZM638.142 264.972C638.428 264.972 638.685 264.822 638.913 264.524C639.142 264.223 639.311 263.751 639.421 263.107C639.492 262.689 639.509 262.346 639.471 262.079C639.433 261.81 639.352 261.612 639.226 261.485C639.101 261.355 638.942 261.29 638.751 261.29C638.464 261.29 638.203 261.437 637.968 261.73C637.735 262.021 637.566 262.48 637.46 263.107C637.389 263.538 637.373 263.89 637.413 264.165C637.452 264.44 637.536 264.643 637.664 264.775C637.791 264.906 637.95 264.972 638.142 264.972ZM597.247 278.322C596.689 278.322 596.228 278.195 595.863 277.94C595.499 277.683 595.247 277.314 595.107 276.834C594.968 276.354 594.956 275.779 595.072 275.107C595.187 274.434 595.393 273.862 595.69 273.392C595.989 272.922 596.359 272.564 596.802 272.319C597.246 272.074 597.745 271.952 598.299 271.952C598.853 271.952 599.311 272.074 599.673 272.319C600.036 272.564 600.288 272.922 600.429 273.392C600.571 273.86 600.586 274.432 600.474 275.107C600.363 275.781 600.157 276.357 599.859 276.837C599.562 277.317 599.19 277.685 598.744 277.94C598.3 278.195 597.801 278.322 597.247 278.322ZM597.474 276.972C597.761 276.972 598.018 276.822 598.245 276.524C598.474 276.223 598.643 275.751 598.753 275.107C598.825 274.689 598.842 274.346 598.804 274.079C598.766 273.81 598.684 273.612 598.559 273.485C598.433 273.355 598.275 273.29 598.084 273.29C597.797 273.29 597.536 273.437 597.301 273.73C597.068 274.021 596.898 274.48 596.793 275.107C596.721 275.538 596.705 275.89 596.745 276.165C596.785 276.44 596.868 276.643 596.996 276.775C597.123 276.906 597.283 276.972 597.474 276.972ZM603.394 278.322C602.836 278.322 602.375 278.195 602.01 277.94C601.645 277.683 601.393 277.314 601.254 276.834C601.115 276.354 601.103 275.779 601.218 275.107C601.334 274.434 601.54 273.862 601.837 273.392C602.136 272.922 602.506 272.564 602.948 272.319C603.393 272.074 603.892 271.952 604.445 271.952C604.999 271.952 605.457 272.074 605.82 272.319C606.182 272.564 606.434 272.922 606.576 273.392C606.717 273.86 606.732 274.432 606.621 275.107C606.509 275.781 606.304 276.357 606.005 276.837C605.708 277.317 605.337 277.685 604.891 277.94C604.446 278.195 603.947 278.322 603.394 278.322ZM603.621 276.972C603.907 276.972 604.164 276.822 604.392 276.524C604.621 276.223 604.79 275.751 604.9 275.107C604.971 274.689 604.988 274.346 604.95 274.079C604.912 273.81 604.831 273.612 604.705 273.485C604.58 273.355 604.421 273.29 604.23 273.29C603.943 273.29 603.682 273.437 603.447 273.73C603.214 274.021 603.045 274.48 602.939 275.107C602.868 275.538 602.852 275.89 602.892 276.165C602.931 276.44 603.015 276.643 603.143 276.775C603.27 276.906 603.429 276.972 603.621 276.972ZM610.915 272.035L609.899 278.155H608.237L609.002 273.565H608.966L607.496 274.366L607.723 272.956L609.385 272.035H610.915ZM613.797 278.322C613.239 278.322 612.778 278.195 612.413 277.94C612.049 277.683 611.797 277.314 611.657 276.834C611.518 276.354 611.506 275.779 611.621 275.107C611.737 274.434 611.943 273.862 612.24 273.392C612.539 272.922 612.909 272.564 613.351 272.319C613.796 272.074 614.295 271.952 614.848 271.952C615.402 271.952 615.86 272.074 616.223 272.319C616.586 272.564 616.838 272.922 616.979 273.392C617.12 273.86 617.135 274.432 617.024 275.107C616.912 275.781 616.707 276.357 616.408 276.837C616.111 277.317 615.74 277.685 615.294 277.94C614.849 278.195 614.35 278.322 613.797 278.322ZM614.024 276.972C614.311 276.972 614.568 276.822 614.795 276.524C615.024 276.223 615.193 275.751 615.303 275.107C615.374 274.689 615.391 274.346 615.353 274.079C615.316 273.81 615.234 273.612 615.108 273.485C614.983 273.355 614.825 273.29 614.633 273.29C614.346 273.29 614.086 273.437 613.85 273.73C613.617 274.021 613.448 274.48 613.342 275.107C613.271 275.538 613.255 275.89 613.295 276.165C613.334 276.44 613.418 276.643 613.546 276.775C613.673 276.906 613.833 276.972 614.024 276.972ZM621.318 272.035L620.302 278.155H618.64L619.405 273.565H619.369L617.899 274.366L618.126 272.956L619.788 272.035H621.318ZM624.2 278.322C623.642 278.322 623.181 278.195 622.816 277.94C622.452 277.683 622.2 277.314 622.06 276.834C621.921 276.354 621.909 275.779 622.024 275.107C622.14 274.434 622.346 273.862 622.643 273.392C622.942 272.922 623.312 272.564 623.755 272.319C624.199 272.074 624.698 271.952 625.252 271.952C625.805 271.952 626.264 272.074 626.626 272.319C626.989 272.564 627.241 272.922 627.382 273.392C627.524 273.86 627.539 274.432 627.427 275.107C627.315 275.781 627.11 276.357 626.811 276.837C626.515 277.317 626.143 277.685 625.697 277.94C625.253 278.195 624.754 278.322 624.2 278.322ZM624.427 276.972C624.714 276.972 624.971 276.822 625.198 276.524C625.427 276.223 625.596 275.751 625.706 275.107C625.778 274.689 625.794 274.346 625.757 274.079C625.719 273.81 625.637 273.612 625.512 273.485C625.386 273.355 625.228 273.29 625.036 273.29C624.75 273.29 624.489 273.437 624.254 273.73C624.021 274.021 623.851 274.48 623.746 275.107C623.674 275.538 623.658 275.89 623.698 276.165C623.738 276.44 623.821 276.643 623.949 276.775C624.076 276.906 624.236 276.972 624.427 276.972ZM631.721 272.035L630.705 278.155H629.044L629.808 273.565H629.773L628.302 274.366L628.53 272.956L630.191 272.035H631.721ZM635.977 272.035L634.962 278.155H633.3L634.065 273.565H634.029L632.559 274.366L632.786 272.956L634.448 272.035H635.977ZM640.234 272.035L639.218 278.155H637.557L638.322 273.565H638.286L636.816 274.366L637.043 272.956L638.704 272.035H640.234Z" fill="#8CB1CC"/>
</svg>
